<svg width="1201" height="154" viewBox="0 0 1201 154" fill="none" xmlns="http://www.w3.org/2000/svg">
<g clip-path="url(#clip0_390_13)">
<path d="M15.5234 153.497L-54.9041 0.261046H0.133648L38.7383 92.6723L45.7811 114.078H48.1286L54.9105 92.6723L94.2973 0.261046H148.031L143.857 15.924L78.3864 153.497H15.5234ZM168.982 153.497V0H219.064V153.497H168.982ZM290.16 153.497C278.335 153.497 269.64 152.975 264.076 151.93C258.511 150.886 255.729 149.668 255.729 148.276L271.379 114.6C275.378 115.296 283.639 115.993 296.159 116.689C308.68 117.211 324.938 117.472 344.937 117.472H365.543C371.629 117.472 375.716 116.601 377.803 114.861C379.89 113.121 380.933 110.597 380.933 107.291V104.681C380.933 100.504 379.89 97.6322 377.803 96.066C375.716 94.4997 371.629 93.7165 365.543 93.7165H305.81C288.247 93.7165 275.465 90.4969 267.467 84.0577C259.467 77.4444 255.468 66.7414 255.468 51.9487V42.551C255.468 34.8935 256.858 27.8452 259.641 21.406C262.597 14.9667 267.553 9.83282 274.509 6.00412C281.465 2.00137 291.029 0 303.202 0H389.802C400.409 0 409.19 0.609111 416.147 1.82733C423.276 3.04557 426.841 4.35081 426.841 5.74306L419.016 38.1131C414.146 37.591 404.93 37.0689 391.367 36.5468C377.976 35.8507 360.934 35.5026 340.242 35.5026L321.461 35.2416C316.07 35.2416 312.244 36.0247 309.984 37.591C307.723 38.9832 306.506 41.6808 306.332 45.6835V47.5109C306.332 51.5137 307.549 54.2982 309.984 55.8644C312.418 57.4307 316.33 58.2139 321.722 58.2139H379.107C390.236 58.2139 399.714 59.3451 407.539 61.6075C415.364 63.8699 421.364 68.0467 425.537 74.1379C429.711 80.0549 431.797 88.8436 431.797 100.504V109.902C431.797 122.954 428.406 133.483 421.624 141.488C415.016 149.494 403.452 153.497 386.932 153.497H290.16ZM468.289 153.497V0H518.631V58.4749H599.753V0H649.835V153.497H599.753V93.9776H518.631V153.497H468.289ZM691.685 153.497L694.294 132.613V0H744.375V117.733H836.714L852.364 150.625C852.364 151.321 850.017 152.018 845.321 152.714C840.626 153.236 832.54 153.497 821.063 153.497H691.685ZM873.308 153.497V0H1040.77V35.5026H924.172V57.1697H1010.51V93.4555H924.172V117.733H1036.59L1052.25 150.625C1052.25 151.321 1049.9 152.018 1045.2 152.714C1040.51 153.236 1032.42 153.497 1020.94 153.497H873.308ZM1057.5 153.497L1067.41 137.834L1122.71 76.7484L1057.5 0H1122.96L1155.05 47.2498H1157.92L1190 0H1255.48L1245.31 15.4019L1190.27 76.7484L1255.48 153.497H1190L1157.92 105.986H1155.05L1122.96 153.497H1057.5Z" fill="#878787"/>
</g>
<defs>
<clipPath id="clip0_390_13">
<rect width="1201" height="154" fill="white"/>
</clipPath>
</defs>
</svg>
