<svg width="474" height="358" viewBox="0 0 474 358" fill="none" xmlns="http://www.w3.org/2000/svg">
<path d="M182.264 306.689C215.016 284.042 258.349 283.965 291.182 306.496L355.761 350.812C368.519 359.567 385.335 359.628 398.156 350.966L300.521 283.459C262.108 256.899 211.248 256.962 172.901 283.616L76.0062 350.966C88.9586 359.63 105.89 359.499 118.707 350.637L182.264 306.689Z" fill="#D9D9D9"/>
<path d="M280.456 216.937C255.292 195.265 218.049 195.297 192.922 217.013L54.5438 336.609L76.0062 350.966L204.568 239.052C222.976 223.028 250.368 222.992 268.817 238.968L398.156 350.966L419.406 336.609L280.456 216.937Z" fill="#D9D9D9"/>
<path d="M280.088 153.43C256.437 128.671 216.896 128.691 193.271 153.475L32.6562 321.968L54.5438 336.609L207.65 174.779C223.412 158.119 249.925 158.096 265.716 174.728L419.406 336.609L441.077 321.968L280.088 153.43Z" fill="#D9D9D9"/>
<path d="M295.619 96.2062C265.583 58.042 207.747 58.0551 177.727 96.2329L11.4062 307.753L32.6562 321.968L196.558 112.859C216.965 86.8241 256.373 86.8044 276.805 112.819L441.077 321.968L462.117 307.753L295.619 96.2062Z" fill="#D9D9D9"/>
<path d="M317.53 43.4415C279.171 -14.4806 194.142 -14.4805 155.783 43.4416L4.27248 272.223C-3.53424 284.011 -0.345669 299.892 11.4062 307.753L174.927 60.0343C204.169 15.7349 269.164 15.7209 298.426 60.0077L462.117 307.753C473.768 299.881 476.9 284.092 469.136 272.368L317.53 43.4415Z" fill="#D9D9D9"/>
</svg>
