<svg width="542" height="421" viewBox="0 0 542 421" fill="none" xmlns="http://www.w3.org/2000/svg">
<path d="M216.477 356.703C249.218 334.078 292.524 334.002 325.346 356.509L407.157 412.613C421.761 422.628 441.002 422.698 455.678 412.789L334.68 329.186C296.281 302.653 245.453 302.716 207.119 329.343L86.9847 412.789C101.81 422.7 121.184 422.551 135.855 412.413L216.477 356.703Z" fill="#878787"/>
<path d="M314.627 254.04C289.469 232.387 252.248 232.419 227.127 254.115L62.4214 396.369L86.9847 412.789L238.769 280.749C257.172 264.74 284.548 264.704 302.993 280.665L455.678 412.789L479.998 396.369L314.627 254.04Z" fill="#878787"/>
<path d="M314.262 180.288C290.615 155.548 251.096 155.569 227.474 180.333L37.3717 379.624L62.4214 396.369L241.848 206.848C257.608 190.201 284.106 190.178 299.895 206.797L479.998 396.369L504.8 379.624L314.262 180.288Z" fill="#878787"/>
<path d="M329.793 110.584C299.756 72.4459 241.95 72.459 211.931 110.611L13.0516 363.367L37.3717 379.624L230.757 133.066C251.163 107.049 290.551 107.03 310.984 133.026L504.8 379.624L528.879 363.367L329.793 110.584Z" fill="#878787"/>
<path d="M351.701 43.4165C313.339 -14.4721 228.351 -14.472 189.988 43.4165L4.89136 322.724C-4.04396 336.208 -0.395794 354.377 13.0516 363.367L209.128 66.5295C238.373 22.2557 303.337 22.2417 332.602 66.503L528.879 363.367C542.211 354.365 545.795 336.3 536.909 322.891L351.701 43.4165Z" fill="#878787"/>
</svg>
